<svg id="icon-gear" xmlns="http://www.w3.org/2000/svg" xmlns:xlink="http://www.w3.org/1999/xlink" width="30" height="30" viewBox="0 0 30 30">
  <defs>
    <clipPath id="clip-path">
      <rect id="Rectangle_13" data-name="Rectangle 13" width="30" height="30" fill="#8c5ab9"/>
    </clipPath>
  </defs>
  <g id="Group_21" data-name="Group 21" clip-path="url(#clip-path)">
    <path id="Path_12" data-name="Path 12" d="M25.575,14.725,30,12.933,28.633,8.409l-4.677.962a10.563,10.563,0,0,0-1.673-2.044l1.862-4.394L19.978.7,17.353,4.687a10.451,10.451,0,0,0-2.628-.259L12.933,0,8.407,1.37l.962,4.677A10.436,10.436,0,0,0,7.33,7.719l-4.4-1.865L.7,10.022,4.687,12.65a10.419,10.419,0,0,0-.259,2.625L0,17.067l1.367,4.526,4.679-.962a10.53,10.53,0,0,0,1.673,2.041l-1.865,4.4L10.022,29.3l2.628-3.989a10.42,10.42,0,0,0,2.625.262L17.067,30l4.524-1.37-.96-4.677a10.452,10.452,0,0,0,2.041-1.673l4.4,1.862L29.3,19.98l-3.984-2.628a10.44,10.44,0,0,0,.259-2.628m-8.962,5.61a5.573,5.573,0,1,1,3.722-6.949,5.574,5.574,0,0,1-3.722,6.949" transform="translate(0 -0.001)" fill="#8c5ab9"/>
  </g>
</svg>
