<?xml version="1.0" encoding="UTF-8"?>
<svg width="24px" height="24px" viewBox="0 0 24 24" version="1.1" xmlns="http://www.w3.org/2000/svg" xmlns:xlink="http://www.w3.org/1999/xlink">
    <g id="Iconly/Light-Outline/Swap" stroke="none" stroke-width="1" fill="none" fill-rule="evenodd">
        <g id="swap" transform="translate(2.000000, 3.000000)" fill="#fff" fill-rule="nonzero">
            <path d="M14.8395556,2.79644444 C15.2192513,2.79644444 15.5330465,3.07859833 15.5827089,3.44467389 L15.5895556,3.54644444 L15.5894444,15.3464726 L18.3856681,12.5390079 C18.6778838,12.2454387 19.1527562,12.2443414 19.4463254,12.536557 C19.7132066,12.8022076 19.7383753,13.2188142 19.5211999,13.5129283 L19.4487763,13.5972143 L15.3709986,17.693881 C15.3464168,17.7180211 15.3213999,17.7399418 15.2950011,17.760148 L15.3709986,17.693881 C15.3342073,17.7308427 15.2945247,17.7631658 15.2526764,17.7908505 C15.2380745,17.7999472 15.2228988,17.8092337 15.2073803,17.8179836 C15.192972,17.8266679 15.1783233,17.834288 15.1634892,17.8413922 C15.148845,17.8478739 15.1339884,17.8544143 15.118889,17.8604777 C15.0997073,17.8686809 15.0800315,17.8756262 15.0601522,17.8817269 C15.0484288,17.8848604 15.0364235,17.8882265 15.0243005,17.8912974 C15.0027008,17.8972283 14.9809959,17.9017061 14.9591656,17.905217 C14.9489509,17.9063797 14.9382341,17.9078677 14.9274475,17.9091268 C14.9028036,17.912512 14.8783824,17.914169 14.8539425,17.9146385 C14.8491144,17.9141774 14.8443402,17.9142222 14.8395556,17.9142222 L14.8249464,17.9146385 C14.8005065,17.914169 14.7760852,17.912512 14.7517766,17.9096676 L14.8395556,17.9142222 C14.7986978,17.9142222 14.758603,17.9109551 14.7195184,17.9046679 C14.697893,17.9017061 14.6761881,17.8972283 14.6546776,17.8917834 C14.6433047,17.8883828 14.6319048,17.8852023 14.6206178,17.8817627 C14.5991231,17.8757703 14.5777614,17.8682115 14.5567098,17.859657 C14.545179,17.8543529 14.5340666,17.8494986 14.5230984,17.8443867 C14.5058214,17.8370019 14.4885033,17.8281256 14.4714803,17.8185321 C14.4561316,17.8091843 14.4409972,17.7999211 14.4262289,17.7901493 C14.4146795,17.7832209 14.403311,17.775239 14.3921221,17.7669047 L14.38411,17.760148 C14.3577112,17.7399418 14.3326943,17.7180211 14.3092255,17.6945523 L14.3078903,17.693881 L10.2301126,13.5972143 C9.93789691,13.3036451 9.93899421,12.8287726 10.2325634,12.536557 C10.4994446,12.2709064 10.9161631,12.2476632 11.2092704,12.4661956 L11.2932208,12.5390079 L14.0894444,15.3484726 L14.0895556,3.54644444 C14.0895556,3.13223088 14.425342,2.79644444 14.8395556,2.79644444 Z M4.91111111,0.0828888889 L4.92572031,0.0824725917 C4.95016016,0.0829421425 4.97458142,0.0845991149 4.9988901,0.0874435089 L4.91111111,0.0828888889 C4.95196891,0.0828888889 4.99206364,0.0861560044 5.03114829,0.0924432382 C5.05252489,0.0953649609 5.07398385,0.0997808997 5.09525352,0.105141884 C5.10775881,0.108810912 5.12050889,0.112388929 5.13311678,0.116290525 C5.15281108,0.121842481 5.17186863,0.128591039 5.19068227,0.136132446 C5.20428775,0.142189126 5.21806041,0.148208961 5.23161013,0.154622861 C5.2477162,0.161586715 5.26357535,0.169781296 5.27918633,0.178579019 C5.29255463,0.186809701 5.30579023,0.194827845 5.31874994,0.203235228 C5.33208412,0.211163902 5.34543761,0.220443425 5.35854453,0.23020638 L5.44277634,0.303230107 L9.52055411,4.39989677 C9.81276976,4.693466 9.81167246,5.16833847 9.51810323,5.46055411 C9.25122211,5.7262047 8.8345036,5.74944789 8.54139629,5.53091556 L8.45744589,5.45810323 L5.66044443,2.64747259 L5.66111111,14.4506667 C5.66111111,14.8648802 5.32532467,15.2006667 4.91111111,15.2006667 C4.53141535,15.2006667 4.21762015,14.9185128 4.16795773,14.5524372 L4.16111111,14.4506667 L4.16044443,2.64847259 L1.36499856,5.45810323 C1.09934797,5.72498435 0.682741336,5.75015312 0.388627226,5.5329777 L0.304341218,5.46055411 C0.0374600991,5.19490353 0.0122913202,4.77829689 0.229466745,4.48418278 L0.301890331,4.39989677 L4.37966811,0.303230107 L4.42382941,0.262733147 C4.43420037,0.253861239 4.44481627,0.245267362 4.45566556,0.236963061 L4.37966811,0.303230107 C4.41645933,0.26626846 4.45614195,0.23394528 4.49799027,0.206260568 C4.51259217,0.197163935 4.52776785,0.18787746 4.54328632,0.179127548 C4.55769462,0.170443182 4.57234336,0.162823149 4.58717742,0.155718919 C4.60182165,0.149237168 4.61667823,0.142696806 4.63177771,0.136633386 C4.6509594,0.128430202 4.67063512,0.121484924 4.69051448,0.11538422 C4.70261061,0.112136116 4.71499668,0.10867364 4.72750764,0.105525481 C4.74765636,0.0999915861 4.76802381,0.0957608899 4.78850453,0.0923821975 C4.80082097,0.0908416564 4.8128924,0.089161741 4.82505216,0.087772622 C4.84820393,0.0845920569 4.87195476,0.0829806414 4.89572437,0.0824924621 C4.9009706,0.0829393182 4.90603496,0.0828888889 4.91111111,0.0828888889 Z" id="Combined-Shape"></path>
        </g>
    </g>
</svg>